<?xml version="1.0" encoding="utf-8"?>
<!-- Generator: Adobe Illustrator 16.0.3, SVG Export Plug-In . SVG Version: 6.00 Build 0)  -->
<!DOCTYPE svg PUBLIC "-//W3C//DTD SVG 1.1//EN" "http://www.w3.org/Graphics/SVG/1.1/DTD/svg11.dtd">
<svg version="1.1" id="Layer_1" xmlns="http://www.w3.org/2000/svg" xmlns:xlink="http://www.w3.org/1999/xlink" x="0px" y="0px"
	 viewBox="0 0 1106.385 467.441" enable-background="new 0 0 1106.385 467.441"
	 xml:space="preserve">
<path d="M464.174,195.21l-34.04-1.17c-5.17-25.86-15.33-49.93-29.48-71.14l23.28-24.92c-15-21.01-33.431-39.44-54.45-54.49
	l-24.92,23.23c-21.2-14.11-45.27-24.31-71.18-29.48l-1.18-34.04c-12.5-2.12-25.381-3.2-38.5-3.2c-13.121,0-26,1.08-38.51,3.2
	l-1.17,34.04c-25.86,5.17-49.94,15.37-71.19,29.48l-24.92-23.23c-21.01,15-39.39,33.43-54.44,54.45l23.23,24.92
	c-14.11,21.2-24.31,45.27-29.48,71.18l-34.04,1.17c-2.12,12.56-3.2,25.39-3.2,38.51c0,13.119,1.08,25.949,3.2,38.51l34.04,1.171
	c5.17,25.909,15.37,49.979,29.48,71.188l-23.23,24.91c15.05,21.021,33.43,39.449,54.44,54.449l24.92-23.229
	c21.25,14.109,45.33,24.311,71.19,29.479l1.17,34.041c12.51,2.119,25.39,3.199,38.51,3.199c13.119,0,26-1.08,38.5-3.199l1.18-34.041
	c25.91-5.17,49.979-15.369,71.18-29.479l24.92,23.229c21.021-15.049,39.45-33.479,54.45-54.49l-23.28-24.92
	c14.15-21.209,24.312-45.279,29.48-71.139l34.04-1.171c2.119-12.56,3.199-25.39,3.199-38.51
	C467.374,220.599,466.293,207.77,464.174,195.21z M233.674,398.089c-90.77,0-164.37-73.59-164.37-164.369
	c0-90.78,73.6-164.37,164.37-164.37c90.78,0,164.37,73.59,164.37,164.37C398.043,324.5,324.454,398.089,233.674,398.089z"/>
<polygon points="233.68,100.984 263.214,192.166 359.058,192.078 281.467,248.343 311.169,339.472 233.68,283.064 156.189,339.472
	185.89,248.343 108.299,192.078 204.142,192.166 "/>
<g>
	<path d="M482.489,169.68v-71h19.5v71H482.489z"/>
	<path d="M534.688,134.78v34.9h-19.5v-71h15.199l28.5,36.1v-36.1h19.5v71h-15.5L534.688,134.78z"/>
	<path d="M646.889,115.68h-20.399v54h-19.5v-54h-20.5v-17h60.399V115.68z"/>
	<path d="M705.588,152.68v17h-50.602v-71h49.701v17h-30.201v10h25.801v15.8h-25.801v11.2H705.588z"/>
	<path d="M762.787,163.78c-5.068,4.267-10.9,6.4-17.5,6.4c-4.6,0-9-0.815-13.201-2.45c-4.199-1.633-7.867-4.016-11-7.15
		c-3.133-3.133-5.633-6.965-7.5-11.5c-1.867-4.533-2.799-9.7-2.799-15.5c0-5,0.932-9.65,2.799-13.95
		c1.867-4.3,4.434-8.033,7.701-11.2c3.266-3.166,7.115-5.666,11.549-7.5c4.434-1.833,9.217-2.75,14.352-2.75
		c3.199,0,6.267,0.35,9.199,1.05c2.935,0.7,5.65,1.734,8.15,3.1c2.5,1.367,4.75,3,6.75,4.9s3.633,4.05,4.9,6.45l-14.5,11.1
		c-1.4-2.8-3.5-5.05-6.302-6.75c-2.801-1.7-5.768-2.55-8.899-2.55c-2.334,0-4.468,0.467-6.4,1.4c-1.934,0.934-3.6,2.234-5,3.9
		c-1.398,1.667-2.5,3.65-3.299,5.95c-0.801,2.3-1.201,4.817-1.201,7.55c0,2.8,0.4,5.334,1.201,7.6
		c0.799,2.267,1.916,4.217,3.35,5.85c1.435,1.635,3.15,2.9,5.15,3.8c2,0.9,4.231,1.35,6.699,1.35c5.666,0,10.666-2.333,15-7h-12.3
		v-14h29.199v37.8h-16.1L762.787,163.78L762.787,163.78z"/>
	<path d="M789.486,169.68v-71h32.6c3.467,0,6.666,0.717,9.6,2.15c2.935,1.435,5.451,3.3,7.552,5.6c2.1,2.3,3.75,4.935,4.948,7.9
		c1.201,2.967,1.802,5.95,1.802,8.95c0,4.134-0.9,7.984-2.699,11.55c-1.801,3.567-4.301,6.484-7.5,8.75l15,26.1h-22l-12.5-21.8
		h-7.301v21.8H789.486z M808.986,130.88h12.301c1.199,0,2.314-0.666,3.35-2c1.033-1.333,1.549-3.2,1.549-5.6
		c0-2.466-0.6-4.35-1.799-5.65c-1.201-1.3-2.399-1.95-3.6-1.95h-11.801V130.88z"/>
	<path d="M876.385,98.68h17.801l24.601,71h-19.801l-4.3-13.9h-18.899l-4.199,13.9h-19.9L876.385,98.68z M891.586,142.78l-6.301-22
		l-6.601,22H891.586z"/>
	<path d="M974.486,115.68h-20.4v54h-19.5v-54h-20.5v-17h60.4V115.68z"/>
	<path d="M1033.186,152.68v17h-50.602v-71h49.701v17h-30.201v10h25.801v15.8h-25.801v11.2H1033.186z"/>
	<path d="M1043.283,169.68v-71h27.301c5.865,0,11.033,0.935,15.5,2.8c4.465,1.867,8.199,4.4,11.199,7.6
		c3,3.2,5.266,6.95,6.801,11.25c1.533,4.3,2.301,8.884,2.301,13.75c0,5.4-0.852,10.285-2.551,14.65
		c-1.699,4.367-4.117,8.1-7.25,11.2c-3.135,3.1-6.9,5.5-11.301,7.2c-4.398,1.7-9.299,2.55-14.699,2.55H1043.283z M1086.584,134.08
		c0-2.733-0.367-5.233-1.1-7.5c-0.734-2.266-1.785-4.2-3.15-5.8c-1.367-1.6-3.051-2.85-5.051-3.75c-2-0.9-4.234-1.35-6.699-1.35
		h-7.801v37h7.801c2.533,0,4.801-0.466,6.801-1.4c2-0.933,3.683-2.233,5.049-3.9c1.365-1.666,2.4-3.633,3.101-5.9
		C1086.234,139.214,1086.584,136.748,1086.584,134.08z"/>
	<path d="M482.489,269.68v-71h32.601c3.466,0,6.665,0.717,9.601,2.15c2.933,1.435,5.449,3.3,7.55,5.6c2.101,2.3,3.75,4.935,4.95,7.9
		c1.199,2.967,1.8,5.95,1.8,8.95c0,4.134-0.899,7.984-2.699,11.55c-1.801,3.566-4.301,6.484-7.5,8.75l15,26.101h-22l-12.5-21.8
		h-7.301v21.8H482.489z M501.989,230.88h12.301c1.199,0,2.315-0.666,3.35-2c1.033-1.333,1.551-3.2,1.551-5.6
		c0-2.466-0.601-4.35-1.801-5.65c-1.199-1.3-2.399-1.95-3.6-1.95h-11.801V230.88L501.989,230.88z"/>
	<path d="M601.588,252.68v17h-50.6v-71h49.7v17h-30.199v10h25.801v15.8h-25.801v11.2H601.588z"/>
	<path d="M654.686,221.88c-2-1.2-4.065-2.266-6.198-3.2c-1.802-0.8-3.816-1.55-6.052-2.25c-2.234-0.7-4.416-1.05-6.549-1.05
		c-1.733,0-3.117,0.267-4.149,0.8c-1.035,0.534-1.552,1.435-1.552,2.7c0,0.934,0.302,1.7,0.9,2.3c0.599,0.6,1.467,1.15,2.6,1.65
		c1.134,0.5,2.517,0.984,4.15,1.45c1.633,0.467,3.482,1.034,5.551,1.7c3.267,1,6.215,2.1,8.851,3.3c2.633,1.2,4.883,2.617,6.75,4.25
		c1.864,1.634,3.301,3.617,4.301,5.95c1,2.335,1.5,5.167,1.5,8.5c0,4.268-0.785,7.852-2.353,10.75
		c-1.565,2.9-3.633,5.218-6.198,6.95c-2.566,1.733-5.468,2.983-8.699,3.75c-3.234,0.766-6.484,1.149-9.75,1.149
		c-2.603,0-5.269-0.199-8-0.601c-2.734-0.399-5.451-0.966-8.15-1.7c-2.7-0.732-5.301-1.6-7.801-2.6s-4.815-2.133-6.949-3.4l8.4-17.1
		c2.332,1.467,4.766,2.768,7.299,3.9c2.133,1,4.551,1.898,7.25,2.698c2.701,0.802,5.451,1.2,8.25,1.2
		c2.133,0,3.615-0.282,4.451-0.85c0.832-0.565,1.25-1.315,1.25-2.25c0-1-0.418-1.852-1.25-2.551
		c-0.836-0.699-1.984-1.316-3.451-1.851c-1.467-0.532-3.149-1.065-5.049-1.601c-1.9-0.533-3.918-1.166-6.051-1.899
		c-3.136-1.065-5.834-2.216-8.101-3.45c-2.268-1.232-4.135-2.633-5.6-4.199c-1.469-1.566-2.551-3.351-3.25-5.351
		c-0.701-2-1.051-4.3-1.051-6.9c0-3.933,0.715-7.4,2.149-10.4c1.433-3,3.384-5.5,5.851-7.5c2.465-2,5.283-3.516,8.448-4.55
		c3.166-1.033,6.517-1.55,10.052-1.55c2.6,0,5.133,0.25,7.6,0.75s4.85,1.134,7.15,1.9c2.301,0.768,4.448,1.6,6.448,2.5
		s3.802,1.75,5.4,2.55L654.686,221.88z"/>
	<path d="M674.385,269.68v-71h30.603c3.465,0,6.664,0.717,9.6,2.15c2.932,1.435,5.449,3.3,7.549,5.6c2.103,2.3,3.75,4.935,4.951,7.9
		c1.199,2.967,1.799,5.95,1.799,8.95c0,3.134-0.565,6.184-1.698,9.15c-1.136,2.967-2.718,5.6-4.75,7.899
		c-2.035,2.301-4.5,4.135-7.4,5.5c-2.9,1.367-6.084,2.051-9.549,2.051h-11.603v21.8H674.385L674.385,269.68z M693.885,230.88h10.301
		c1.199,0,2.316-0.55,3.351-1.65c1.033-1.1,1.551-3.083,1.551-5.95c0-2.933-0.6-4.933-1.801-6c-1.199-1.066-2.4-1.6-3.601-1.6
		h-9.801V230.88z"/>
	<path d="M769.684,270.28c-5.399,0-10.301-1.032-14.698-3.1c-4.4-2.065-8.168-4.783-11.302-8.15
		c-3.135-3.364-5.565-7.215-7.301-11.55c-1.733-4.333-2.6-8.8-2.6-13.4c0-4.666,0.899-9.166,2.701-13.5
		c1.799-4.333,4.313-8.15,7.549-11.45c3.231-3.3,7.065-5.933,11.5-7.9c4.434-1.965,9.283-2.95,14.551-2.95
		c5.4,0,10.299,1.034,14.699,3.1c4.399,2.067,8.166,4.8,11.301,8.2c3.133,3.4,5.549,7.267,7.25,11.6
		c1.699,4.334,2.549,8.767,2.549,13.3c0,4.667-0.897,9.15-2.699,13.45c-1.801,4.3-4.301,8.101-7.5,11.399
		c-3.198,3.301-7.018,5.949-11.448,7.949C779.799,269.28,774.949,270.28,769.684,270.28z M753.584,234.28c0,2.4,0.332,4.718,1,6.95
		c0.666,2.234,1.666,4.219,3,5.95c1.332,1.733,3.016,3.135,5.049,4.2c2.033,1.066,4.451,1.6,7.25,1.6
		c2.801,0,5.234-0.55,7.301-1.648c2.066-1.102,3.75-2.533,5.052-4.302c1.299-1.766,2.266-3.782,2.897-6.05
		c0.633-2.266,0.951-4.564,0.951-6.9c0-2.4-0.334-4.715-1-6.95c-0.668-2.233-1.686-4.2-3.051-5.9c-1.367-1.7-3.066-3.065-5.101-4.1
		c-2.034-1.033-4.418-1.55-7.149-1.55c-2.799,0-5.217,0.535-7.25,1.6c-2.033,1.067-3.717,2.484-5.049,4.25
		c-1.336,1.767-2.318,3.767-2.951,6C753.898,229.665,753.584,231.947,753.584,234.28z"/>
	<path d="M834.684,234.78v34.9h-19.5v-71h15.199l28.5,36.1v-36.1h19.5v71h-15.5L834.684,234.78z"/>
	<path d="M934.584,221.88c-2-1.2-4.066-2.266-6.199-3.2c-1.801-0.8-3.817-1.55-6.051-2.25c-2.234-0.7-4.418-1.05-6.551-1.05
		c-1.734,0-3.117,0.267-4.148,0.8c-1.035,0.534-1.551,1.435-1.551,2.7c0,0.934,0.301,1.7,0.9,2.3c0.599,0.6,1.465,1.15,2.6,1.65
		c1.133,0.5,2.516,0.984,4.15,1.45c1.633,0.467,3.481,1.034,5.549,1.7c3.266,1,6.217,2.1,8.852,3.3c2.633,1.2,4.883,2.617,6.75,4.25
		c1.865,1.634,3.299,3.617,4.299,5.95c1,2.335,1.5,5.167,1.5,8.5c0,4.268-0.782,7.852-2.35,10.75c-1.566,2.9-3.635,5.218-6.199,6.95
		c-2.567,1.733-5.469,2.983-8.701,3.75c-3.233,0.766-6.483,1.149-9.75,1.149c-2.6,0-5.268-0.199-8-0.601
		c-2.733-0.399-5.448-0.966-8.149-1.7c-2.699-0.732-5.299-1.6-7.799-2.6s-4.818-2.133-6.951-3.4l8.399-17.1
		c2.334,1.467,4.767,2.768,7.302,3.9c2.133,1,4.549,1.898,7.25,2.698c2.698,0.802,5.448,1.2,8.25,1.2
		c2.133,0,3.614-0.282,4.448-0.85c0.834-0.565,1.25-1.315,1.25-2.25c0-1-0.416-1.852-1.25-2.551s-1.983-1.316-3.448-1.851
		c-1.468-0.532-3.15-1.065-5.052-1.601c-1.899-0.533-3.916-1.166-6.049-1.899c-3.135-1.065-5.836-2.216-8.102-3.45
		c-2.267-1.232-4.133-2.633-5.601-4.199c-1.467-1.566-2.549-3.351-3.25-5.351c-0.698-2-1.049-4.3-1.049-6.9
		c0-3.933,0.715-7.4,2.148-10.4c1.433-3,3.383-5.5,5.852-7.5c2.465-2,5.281-3.516,8.449-4.55c3.166-1.033,6.516-1.55,10.051-1.55
		c2.601,0,5.133,0.25,7.601,0.75c2.465,0.5,4.85,1.134,7.149,1.9c2.299,0.768,4.449,1.6,6.449,2.5s3.801,1.75,5.4,2.55
		L934.584,221.88z"/>
	<path d="M1004.883,252.68v17h-50.602v-71h49.701v17h-30.201v10h25.801v15.8h-25.801v11.2H1004.883z"/>
	<path d="M530.689,363.78c-5.067,4.269-10.899,6.4-17.5,6.4c-4.601,0-9-0.815-13.2-2.45c-4.199-1.633-7.867-4.016-11-7.148
		c-3.134-3.133-5.634-6.967-7.5-11.5c-1.867-4.533-2.8-9.701-2.8-15.5c0-5,0.933-9.65,2.8-13.951
		c1.866-4.299,4.434-8.032,7.7-11.199c3.266-3.166,7.115-5.666,11.55-7.5c4.434-1.833,9.216-2.75,14.351-2.75
		c3.2,0,6.267,0.35,9.2,1.05c2.933,0.7,5.649,1.733,8.149,3.101s4.75,3,6.75,4.899s3.633,4.05,4.899,6.45l-14.5,11.1
		c-1.399-2.8-3.5-5.05-6.3-6.75c-2.801-1.699-5.768-2.55-8.9-2.55c-2.334,0-4.467,0.468-6.399,1.399
		c-1.935,0.936-3.601,2.234-5,3.899c-1.399,1.668-2.5,3.65-3.3,5.95c-0.801,2.3-1.2,4.816-1.2,7.55c0,2.802,0.399,5.335,1.2,7.601
		c0.8,2.268,1.916,4.218,3.351,5.851c1.433,1.636,3.149,2.899,5.149,3.8s4.232,1.352,6.699,1.352c5.666,0,10.666-2.334,15-7h-12.3
		v-14h29.2v37.8h-16.101L530.689,363.78L530.689,363.78z"/>
	<path d="M557.389,369.68v-71h32.601c3.467,0,6.666,0.717,9.6,2.149c2.934,1.434,5.451,3.301,7.551,5.601
		c2.101,2.3,3.75,4.935,4.949,7.899c1.201,2.967,1.801,5.949,1.801,8.949c0,4.135-0.899,7.984-2.698,11.551
		c-1.802,3.566-4.302,6.484-7.5,8.75l15,26.101h-22l-12.5-21.8h-7.302v21.8H557.389z M576.889,330.88h12.302
		c1.198,0,2.313-0.666,3.35-2c1.033-1.334,1.549-3.2,1.549-5.602c0-2.465-0.6-4.35-1.799-5.648c-1.201-1.301-2.4-1.95-3.6-1.95
		h-11.802V330.88z"/>
	<path d="M656.988,370.28c-5.398,0-10.299-1.032-14.699-3.1c-4.4-2.065-8.168-4.783-11.301-8.15
		c-3.133-3.364-5.566-7.215-7.299-11.55c-1.734-4.333-2.601-8.8-2.601-13.398c0-4.666,0.898-9.166,2.699-13.5
		s4.315-8.15,7.551-11.451c3.232-3.299,7.064-5.932,11.5-7.899c4.433-1.966,9.281-2.95,14.549-2.95c5.4,0,10.302,1.035,14.701,3.102
		c4.398,2.066,8.164,4.8,11.299,8.199c3.134,3.399,5.552,7.268,7.25,11.601c1.701,4.334,2.552,8.769,2.552,13.3
		c0,4.667-0.9,9.15-2.701,13.45c-1.799,4.3-4.299,8.101-7.5,11.399c-3.199,3.301-7.017,5.949-11.449,7.949
		S662.254,370.28,656.988,370.28z M640.889,334.28c0,2.4,0.334,4.718,1,6.95c0.666,2.234,1.666,4.219,3,5.95
		c1.334,1.733,3.017,3.135,5.052,4.2c2.032,1.066,4.448,1.6,7.25,1.6c2.799,0,5.231-0.55,7.299-1.648
		c2.065-1.102,3.75-2.533,5.051-4.301c1.301-1.767,2.266-3.783,2.9-6.051c0.633-2.266,0.948-4.564,0.948-6.898
		c0-2.4-0.334-4.717-1-6.951c-0.666-2.232-1.684-4.199-3.049-5.899c-1.367-1.7-3.067-3.065-5.102-4.101
		c-2.033-1.032-4.416-1.549-7.148-1.549c-2.801,0-5.219,0.533-7.25,1.6c-2.035,1.066-3.719,2.484-5.051,4.25
		c-1.334,1.768-2.316,3.768-2.949,6C641.205,329.666,640.889,331.949,640.889,334.28z"/>
	<path d="M733.488,352.98c2.266,0,4.201-0.5,5.801-1.5s2.9-2.314,3.9-3.95c1-1.633,1.731-3.516,2.198-5.649
		c0.468-2.133,0.701-4.365,0.701-6.699v-36.5h19.5v36.5c0,4.936-0.635,9.55-1.899,13.85c-1.269,4.301-3.234,8.018-5.9,11.15
		c-2.668,3.135-6.019,5.6-10.051,7.4c-4.033,1.799-8.783,2.698-14.25,2.698c-5.666,0-10.517-0.948-14.55-2.85
		c-4.034-1.9-7.35-4.45-9.95-7.65c-2.601-3.198-4.5-6.915-5.699-11.149c-1.199-4.232-1.801-8.715-1.801-13.449v-36.5h19.5v36.5
		c0,2.334,0.233,4.584,0.7,6.75c0.466,2.167,1.199,4.066,2.199,5.699c1,1.635,2.283,2.936,3.851,3.899
		C729.305,352.498,731.223,352.98,733.488,352.98z"/>
	<path d="M777.789,369.68v-71h30.6c3.467,0,6.666,0.717,9.601,2.149c2.934,1.434,5.45,3.301,7.551,5.601
		c2.1,2.3,3.75,4.935,4.949,7.899c1.2,2.967,1.801,5.949,1.801,8.949c0,3.135-0.566,6.186-1.699,9.15
		c-1.135,2.967-2.719,5.6-4.75,7.9c-2.035,2.299-4.5,4.133-7.399,5.5c-2.9,1.366-6.084,2.049-9.552,2.049h-11.6v21.801
		L777.789,369.68L777.789,369.68z M797.289,330.88h10.301c1.199,0,2.314-0.551,3.351-1.65c1.032-1.1,1.549-3.083,1.549-5.95
		c0-2.933-0.601-4.933-1.799-6c-1.201-1.065-2.4-1.6-3.601-1.6h-9.801V330.88z"/>
</g>
</svg>
