<?xml version="1.0" encoding="utf-8"?>
<!-- Generator: Adobe Illustrator 16.0.3, SVG Export Plug-In . SVG Version: 6.00 Build 0)  -->
<!DOCTYPE svg PUBLIC "-//W3C//DTD SVG 1.1//EN" "http://www.w3.org/Graphics/SVG/1.1/DTD/svg11.dtd">
<svg version="1.1" id="Layer_1" xmlns="http://www.w3.org/2000/svg" xmlns:xlink="http://www.w3.org/1999/xlink" x="0px" y="0px"
	 viewBox="0 0 467.39 467.44" enable-background="new 0 0 467.39 467.44" xml:space="preserve">
<path d="M464.19,195.21l-34.04-1.17c-5.17-25.86-15.33-49.93-29.48-71.14l23.28-24.92c-15-21.01-33.43-39.44-54.45-54.49
	l-24.92,23.23c-21.2-14.11-45.27-24.31-71.18-29.48L272.22,3.2c-12.5-2.12-25.381-3.2-38.5-3.2c-13.121,0-26,1.08-38.51,3.2
	l-1.17,34.04c-25.86,5.17-49.94,15.37-71.19,29.48L97.93,43.49c-21.01,15-39.39,33.43-54.44,54.45l23.23,24.92
	c-14.11,21.2-24.31,45.27-29.48,71.18L3.2,195.21C1.08,207.77,0,220.6,0,233.72s1.08,25.95,3.2,38.51l34.04,1.171
	c5.17,25.909,15.37,49.979,29.48,71.189L43.49,369.5c15.05,21.02,33.43,39.449,54.44,54.449l24.92-23.229
	c21.25,14.11,45.33,24.31,71.19,29.479l1.17,34.041c12.51,2.119,25.39,3.199,38.51,3.199c13.119,0,26-1.08,38.5-3.199l1.18-34.041
	c25.91-5.17,49.979-15.369,71.18-29.479l24.92,23.229c21.021-15.049,39.45-33.479,54.45-54.49l-23.28-24.92
	c14.15-21.209,24.311-45.279,29.48-71.139l34.04-1.171c2.12-12.56,3.2-25.39,3.2-38.51S466.31,207.77,464.19,195.21z M233.69,398.09
	c-90.77,0-164.37-73.59-164.37-164.37s73.6-164.37,164.37-164.37c90.78,0,164.37,73.59,164.37,164.37S324.47,398.09,233.69,398.09z"
	/>
<polygon points="233.696,100.984 263.23,192.166 359.075,192.078 281.483,248.344 311.186,339.472 233.696,283.064 156.206,339.472
	185.906,248.344 108.315,192.078 204.159,192.166 "/>
</svg>
