<?xml version="1.0" encoding="utf-8"?>
<!-- Generator: Adobe Illustrator 16.0.3, SVG Export Plug-In . SVG Version: 6.00 Build 0)  -->
<!DOCTYPE svg PUBLIC "-//W3C//DTD SVG 1.1//EN" "http://www.w3.org/Graphics/SVG/1.1/DTD/svg11.dtd">
<svg version="1.1" id="Layer_1" xmlns="http://www.w3.org/2000/svg" xmlns:xlink="http://www.w3.org/1999/xlink" x="0px" y="0px"
	viewBox="0 0 1745.623 467.44" enable-background="new 0 0 1745.623 467.44"
	 xml:space="preserve">
<path d="M680.948,342.081l-12.85,13.789l-11.01,11.811H274v-75h381.348l5.21,0.18C665.308,310.05,672.128,326.51,680.948,342.081z"
	/>
<path d="M622.098,271.68H102v-75h519.958c-1.81,12.16-2.72,24.6-2.72,37.04C619.238,246.48,620.198,259.22,622.098,271.68z"/>
<path d="M680.948,125.36c-8.82,15.57-15.64,32.03-20.39,49.22l-2.89,0.1H0v-75h657.008l11.09,11.89L680.948,125.36z"/>
<path d="M1103.428,195.21l-34.039-1.17c-5.17-25.86-15.33-49.93-29.48-71.14l23.279-24.92c-15-21.01-33.43-39.44-54.449-54.49
	l-24.92,23.23c-21.201-14.11-45.27-24.31-71.18-29.48l-1.18-34.04c-12.5-2.12-25.381-3.2-38.5-3.2c-13.121,0-26,1.08-38.51,3.2
	l-1.17,34.04c-25.86,5.17-49.94,15.37-71.19,29.48l-24.92-23.23c-21.01,15-39.39,33.43-54.44,54.45l23.23,24.92
	c-14.11,21.2-24.31,45.27-29.48,71.18l-34.04,1.17c-2.12,12.56-3.2,25.39-3.2,38.51s1.08,25.95,3.2,38.51l34.04,1.171
	c5.17,25.909,15.37,49.979,29.48,71.189l-23.23,24.91c15.05,21.02,33.43,39.449,54.44,54.449l24.92-23.229
	c21.25,14.11,45.33,24.31,71.19,29.479l1.17,34.041c12.51,2.119,25.39,3.199,38.51,3.199c13.12,0,26-1.08,38.5-3.199l1.18-34.041
	c25.91-5.17,49.979-15.369,71.18-29.479l24.92,23.229c21.02-15.049,39.449-33.479,54.449-54.49l-23.279-24.92
	c14.15-21.209,24.311-45.279,29.48-71.139l34.039-1.171c2.121-12.56,3.201-25.39,3.201-38.51S1105.549,207.77,1103.428,195.21z
	 M872.928,398.09c-90.77,0-164.37-73.59-164.37-164.37s73.6-164.37,164.37-164.37c90.781,0,164.371,73.59,164.371,164.37
	S963.709,398.09,872.928,398.09z"/>
<polygon points="872.813,100.984 902.346,192.166 998.191,192.078 920.6,248.344 950.301,339.472 872.813,283.064 795.322,339.472
	825.022,248.344 747.432,192.078 843.275,192.166 "/>
<g>
	<path d="M1121.727,169.68v-71h19.5v71H1121.727z"/>
	<path d="M1173.926,134.78v34.9h-19.5v-71h15.199l28.5,36.1v-36.1h19.5v71h-15.5L1173.926,134.78z"/>
	<path d="M1286.127,115.68h-20.4v54h-19.5v-54h-20.5v-17h60.4V115.68z"/>
	<path d="M1344.826,152.68v17h-50.602v-71h49.701v17h-30.201v10h25.801v15.8h-25.801v11.2H1344.826z"/>
	<path d="M1402.025,163.78c-5.068,4.267-10.9,6.4-17.5,6.4c-4.6,0-9-0.815-13.201-2.45c-4.199-1.633-7.867-4.016-11-7.15
		c-3.133-3.133-5.633-6.965-7.5-11.5c-1.867-4.533-2.799-9.7-2.799-15.5c0-5,0.932-9.65,2.799-13.95
		c1.867-4.3,4.434-8.033,7.701-11.2c3.266-3.166,7.115-5.666,11.549-7.5c4.434-1.833,9.217-2.75,14.352-2.75
		c3.199,0,6.266,0.35,9.199,1.05c2.934,0.7,5.65,1.734,8.15,3.1c2.5,1.367,4.75,3,6.75,4.9c2,1.9,3.633,4.05,4.9,6.45l-14.5,11.1
		c-1.4-2.8-3.5-5.05-6.301-6.75c-2.801-1.7-5.768-2.55-8.9-2.55c-2.334,0-4.467,0.467-6.4,1.4c-1.934,0.934-3.6,2.234-5,3.9
		c-1.398,1.667-2.5,3.65-3.299,5.95c-0.801,2.3-1.201,4.817-1.201,7.55c0,2.8,0.4,5.334,1.201,7.6
		c0.799,2.267,1.916,4.217,3.35,5.85c1.434,1.635,3.15,2.9,5.15,3.8s4.232,1.35,6.699,1.35c5.666,0,10.666-2.333,15-7h-12.299v-14
		h29.199v37.8h-16.1V163.78z"/>
	<path d="M1428.725,169.68v-71h32.6c3.467,0,6.666,0.717,9.6,2.15c2.934,1.435,5.451,3.3,7.551,5.6s3.75,4.935,4.949,7.9
		c1.201,2.967,1.801,5.95,1.801,8.95c0,4.134-0.9,7.984-2.699,11.55c-1.801,3.567-4.301,6.484-7.5,8.75l15,26.1h-22l-12.5-21.8
		h-7.301v21.8H1428.725z M1448.225,130.88h12.301c1.199,0,2.314-0.666,3.35-2c1.033-1.333,1.549-3.2,1.549-5.6
		c0-2.466-0.6-4.35-1.799-5.65c-1.201-1.3-2.4-1.95-3.6-1.95h-11.801V130.88z"/>
	<path d="M1515.623,98.68h17.801l24.6,71h-19.801l-4.299-13.9h-18.9l-4.199,13.9h-19.9L1515.623,98.68z M1530.824,142.78l-6.301-22
		l-6.6,22H1530.824z"/>
	<path d="M1613.725,115.68h-20.4v54h-19.5v-54h-20.5v-17h60.4V115.68z"/>
	<path d="M1672.424,152.68v17h-50.602v-71h49.701v17h-30.201v10h25.801v15.8h-25.801v11.2H1672.424z"/>
	<path d="M1682.521,169.68v-71h27.301c5.865,0,11.033,0.935,15.5,2.8c4.465,1.867,8.199,4.4,11.199,7.6
		c3,3.2,5.266,6.95,6.801,11.25c1.533,4.3,2.301,8.884,2.301,13.75c0,5.4-0.852,10.285-2.551,14.65
		c-1.699,4.367-4.117,8.1-7.25,11.2c-3.135,3.1-6.9,5.5-11.301,7.2c-4.398,1.7-9.299,2.55-14.699,2.55H1682.521z M1725.822,134.08
		c0-2.733-0.367-5.233-1.1-7.5c-0.734-2.266-1.785-4.2-3.15-5.8c-1.367-1.6-3.051-2.85-5.051-3.75s-4.234-1.35-6.699-1.35h-7.801v37
		h7.801c2.533,0,4.801-0.466,6.801-1.4c2-0.933,3.682-2.233,5.049-3.9c1.365-1.666,2.4-3.633,3.1-5.9
		C1725.473,139.214,1725.822,136.748,1725.822,134.08z"/>
	<path d="M1121.727,269.68v-71h32.602c3.465,0,6.664,0.717,9.6,2.15c2.932,1.435,5.449,3.3,7.549,5.6
		c2.102,2.3,3.75,4.935,4.951,7.9c1.199,2.967,1.799,5.95,1.799,8.95c0,4.134-0.898,7.984-2.699,11.55
		c-1.801,3.566-4.301,6.484-7.5,8.75l15,26.1h-22l-12.5-21.8h-7.301v21.8H1121.727z M1141.227,230.88h12.301
		c1.199,0,2.316-0.666,3.35-2c1.033-1.333,1.551-3.2,1.551-5.6c0-2.466-0.6-4.35-1.801-5.65c-1.199-1.3-2.4-1.95-3.6-1.95h-11.801
		V230.88z"/>
	<path d="M1240.826,252.68v17h-50.6v-71h49.699v17h-30.199v10h25.801v15.8h-25.801v11.2H1240.826z"/>
	<path d="M1293.924,221.88c-2-1.2-4.066-2.266-6.199-3.2c-1.801-0.8-3.816-1.55-6.051-2.25s-4.416-1.05-6.549-1.05
		c-1.734,0-3.117,0.267-4.15,0.8c-1.035,0.534-1.551,1.435-1.551,2.7c0,0.934,0.301,1.7,0.9,2.3s1.467,1.15,2.6,1.65
		s2.516,0.984,4.15,1.45c1.633,0.467,3.482,1.034,5.551,1.7c3.266,1,6.215,2.1,8.85,3.3c2.633,1.2,4.883,2.617,6.75,4.25
		c1.865,1.634,3.301,3.617,4.301,5.95c1,2.335,1.5,5.167,1.5,8.5c0,4.268-0.785,7.851-2.352,10.75
		c-1.566,2.9-3.633,5.218-6.199,6.95c-2.566,1.734-5.467,2.984-8.699,3.75c-3.234,0.766-6.484,1.15-9.75,1.15
		c-2.602,0-5.268-0.2-8-0.601c-2.734-0.399-5.451-0.966-8.15-1.7c-2.701-0.732-5.301-1.6-7.801-2.6s-4.816-2.133-6.949-3.4l8.4-17.1
		c2.332,1.467,4.766,2.768,7.299,3.9c2.133,1,4.551,1.899,7.25,2.699c2.701,0.801,5.451,1.2,8.25,1.2
		c2.133,0,3.615-0.282,4.451-0.85c0.832-0.565,1.25-1.315,1.25-2.25c0-1-0.418-1.851-1.25-2.55c-0.836-0.7-1.984-1.316-3.451-1.851
		c-1.467-0.532-3.15-1.065-5.049-1.6c-1.9-0.533-3.918-1.166-6.051-1.9c-3.135-1.065-5.834-2.216-8.1-3.45
		c-2.268-1.232-4.135-2.633-5.6-4.2c-1.469-1.565-2.551-3.35-3.25-5.35c-0.701-2-1.051-4.3-1.051-6.9c0-3.933,0.715-7.4,2.15-10.4
		c1.432-3,3.383-5.5,5.85-7.5c2.465-2,5.283-3.516,8.449-4.55c3.166-1.033,6.516-1.55,10.051-1.55c2.6,0,5.133,0.25,7.6,0.75
		s4.85,1.134,7.15,1.9c2.301,0.768,4.449,1.6,6.449,2.5c2,0.9,3.801,1.75,5.4,2.55L1293.924,221.88z"/>
	<path d="M1313.623,269.68v-71h30.602c3.465,0,6.664,0.717,9.6,2.15c2.932,1.435,5.449,3.3,7.549,5.6
		c2.102,2.3,3.75,4.935,4.951,7.9c1.199,2.967,1.799,5.95,1.799,8.95c0,3.134-0.566,6.184-1.699,9.15
		c-1.135,2.967-2.717,5.6-4.75,7.9c-2.035,2.3-4.5,4.134-7.4,5.5c-2.9,1.367-6.084,2.05-9.549,2.05h-11.602v21.8H1313.623z
		 M1333.123,230.88h10.301c1.199,0,2.316-0.55,3.35-1.65c1.033-1.1,1.551-3.083,1.551-5.95c0-2.933-0.6-4.933-1.801-6
		c-1.199-1.066-2.4-1.6-3.6-1.6h-9.801V230.88z"/>
	<path d="M1408.922,270.28c-5.4,0-10.301-1.032-14.699-3.1c-4.4-2.065-8.168-4.783-11.301-8.15
		c-3.135-3.365-5.566-7.215-7.301-11.55c-1.734-4.333-2.6-8.8-2.6-13.4c0-4.666,0.9-9.166,2.701-13.5
		c1.799-4.333,4.314-8.15,7.549-11.45c3.232-3.3,7.066-5.933,11.5-7.9c4.434-1.965,9.283-2.95,14.551-2.95
		c5.4,0,10.299,1.034,14.699,3.1c4.4,2.067,8.166,4.8,11.301,8.2c3.133,3.4,5.549,7.267,7.25,11.6
		c1.699,4.334,2.549,8.767,2.549,13.3c0,4.667-0.898,9.15-2.699,13.45s-4.301,8.1-7.5,11.4c-3.199,3.3-7.018,5.949-11.449,7.949
		C1419.037,269.28,1414.188,270.28,1408.922,270.28z M1392.822,234.28c0,2.4,0.332,4.717,1,6.95c0.666,2.234,1.666,4.218,3,5.95
		c1.332,1.734,3.016,3.135,5.049,4.2c2.033,1.067,4.451,1.6,7.25,1.6c2.801,0,5.234-0.55,7.301-1.649
		c2.066-1.101,3.75-2.533,5.051-4.301c1.299-1.766,2.266-3.782,2.898-6.05c0.633-2.266,0.951-4.565,0.951-6.9
		c0-2.4-0.334-4.715-1-6.95c-0.668-2.233-1.686-4.2-3.051-5.9c-1.367-1.7-3.066-3.065-5.1-4.1c-2.035-1.033-4.418-1.55-7.15-1.55
		c-2.799,0-5.217,0.535-7.25,1.6c-2.033,1.067-3.717,2.484-5.049,4.25c-1.336,1.767-2.318,3.767-2.951,6
		C1393.137,229.665,1392.822,231.947,1392.822,234.28z"/>
	<path d="M1473.922,234.78v34.9h-19.5v-71h15.199l28.5,36.1v-36.1h19.5v71h-15.5L1473.922,234.78z"/>
	<path d="M1573.822,221.88c-2-1.2-4.066-2.266-6.199-3.2c-1.801-0.8-3.818-1.55-6.051-2.25c-2.234-0.7-4.418-1.05-6.551-1.05
		c-1.734,0-3.117,0.267-4.148,0.8c-1.035,0.534-1.551,1.435-1.551,2.7c0,0.934,0.301,1.7,0.9,2.3s1.465,1.15,2.6,1.65
		c1.133,0.5,2.516,0.984,4.15,1.45c1.633,0.467,3.482,1.034,5.549,1.7c3.266,1,6.217,2.1,8.852,3.3c2.633,1.2,4.883,2.617,6.75,4.25
		c1.865,1.634,3.299,3.617,4.299,5.95c1,2.335,1.5,5.167,1.5,8.5c0,4.268-0.783,7.851-2.35,10.75c-1.566,2.9-3.635,5.218-6.199,6.95
		c-2.568,1.734-5.469,2.984-8.701,3.75c-3.234,0.766-6.484,1.15-9.75,1.15c-2.6,0-5.268-0.2-8-0.601
		c-2.734-0.399-5.449-0.966-8.15-1.7c-2.699-0.732-5.299-1.6-7.799-2.6s-4.818-2.133-6.951-3.4l8.4-17.1
		c2.334,1.467,4.766,2.768,7.301,3.9c2.133,1,4.549,1.899,7.25,2.699c2.699,0.801,5.449,1.2,8.25,1.2
		c2.133,0,3.615-0.282,4.449-0.85c0.834-0.565,1.25-1.315,1.25-2.25c0-1-0.416-1.851-1.25-2.55c-0.834-0.7-1.984-1.316-3.449-1.851
		c-1.467-0.532-3.15-1.065-5.051-1.6c-1.9-0.533-3.916-1.166-6.049-1.9c-3.135-1.065-5.836-2.216-8.102-3.45
		c-2.266-1.232-4.133-2.633-5.6-4.2c-1.467-1.565-2.549-3.35-3.25-5.35c-0.699-2-1.049-4.3-1.049-6.9c0-3.933,0.715-7.4,2.148-10.4
		s3.383-5.5,5.852-7.5c2.465-2,5.281-3.516,8.449-4.55c3.166-1.033,6.516-1.55,10.051-1.55c2.6,0,5.133,0.25,7.6,0.75
		c2.465,0.5,4.85,1.134,7.15,1.9c2.299,0.768,4.449,1.6,6.449,2.5c2,0.9,3.801,1.75,5.4,2.55L1573.822,221.88z"/>
	<path d="M1644.121,252.68v17h-50.602v-71h49.701v17h-30.201v10h25.801v15.8h-25.801v11.2H1644.121z"/>
	<path d="M1169.928,363.78c-5.068,4.268-10.9,6.4-17.5,6.4c-4.6,0-9-0.815-13.201-2.45c-4.199-1.633-7.867-4.016-11-7.149
		c-3.133-3.133-5.633-6.966-7.5-11.5c-1.867-4.533-2.799-9.7-2.799-15.5c0-5,0.932-9.65,2.799-13.95s4.434-8.033,7.701-11.2
		c3.266-3.166,7.115-5.666,11.549-7.5c4.434-1.833,9.217-2.75,14.352-2.75c3.199,0,6.266,0.35,9.199,1.05s5.65,1.734,8.15,3.101
		c2.5,1.367,4.75,3,6.75,4.899c2,1.9,3.633,4.05,4.9,6.45l-14.5,11.1c-1.4-2.8-3.5-5.05-6.301-6.75
		c-2.801-1.699-5.768-2.55-8.9-2.55c-2.334,0-4.467,0.468-6.4,1.4c-1.934,0.935-3.6,2.234-5,3.899c-1.398,1.668-2.5,3.65-3.299,5.95
		c-0.801,2.3-1.201,4.817-1.201,7.55c0,2.801,0.4,5.335,1.201,7.601c0.799,2.267,1.916,4.217,3.35,5.85
		c1.434,1.635,3.15,2.9,5.15,3.8c2,0.9,4.232,1.351,6.699,1.351c5.666,0,10.666-2.333,15-7h-12.299v-14h29.199v37.8h-16.1V363.78z"
		/>
	<path d="M1196.627,369.68v-71h32.6c3.467,0,6.666,0.717,9.6,2.15s5.451,3.3,7.551,5.6s3.75,4.935,4.949,7.9
		c1.201,2.967,1.801,5.949,1.801,8.949c0,4.135-0.9,7.984-2.699,11.551c-1.801,3.566-4.301,6.484-7.5,8.75l15,26.1h-22l-12.5-21.8
		h-7.301v21.8H1196.627z M1216.127,330.88h12.301c1.199,0,2.314-0.666,3.35-2c1.033-1.333,1.549-3.2,1.549-5.601
		c0-2.465-0.6-4.35-1.799-5.649c-1.201-1.3-2.4-1.95-3.6-1.95h-11.801V330.88z"/>
	<path d="M1296.227,370.28c-5.398,0-10.299-1.032-14.699-3.1c-4.4-2.065-8.168-4.783-11.301-8.15
		c-3.133-3.365-5.566-7.215-7.299-11.55c-1.734-4.333-2.6-8.8-2.6-13.399c0-4.666,0.898-9.166,2.699-13.5
		c1.801-4.333,4.316-8.15,7.551-11.45c3.232-3.3,7.064-5.933,11.5-7.9c4.432-1.966,9.281-2.95,14.549-2.95
		c5.4,0,10.301,1.035,14.701,3.101c4.398,2.067,8.164,4.8,11.299,8.2c3.133,3.399,5.551,7.267,7.25,11.6
		c1.701,4.334,2.551,8.768,2.551,13.3c0,4.667-0.9,9.15-2.701,13.45c-1.799,4.3-4.299,8.1-7.5,11.4
		c-3.199,3.3-7.016,5.949-11.449,7.949S1301.492,370.28,1296.227,370.28z M1280.127,334.28c0,2.4,0.334,4.718,1,6.95
		c0.666,2.234,1.666,4.218,3,5.95c1.334,1.734,3.016,3.135,5.051,4.2c2.033,1.067,4.449,1.6,7.25,1.6
		c2.799,0,5.232-0.55,7.299-1.649c2.066-1.101,3.75-2.533,5.051-4.301c1.301-1.766,2.266-3.782,2.9-6.05
		c0.633-2.266,0.949-4.565,0.949-6.899c0-2.4-0.334-4.716-1-6.95c-0.666-2.233-1.684-4.2-3.049-5.9
		c-1.367-1.7-3.068-3.065-5.102-4.1c-2.033-1.033-4.416-1.55-7.148-1.55c-2.801,0-5.219,0.534-7.25,1.6
		c-2.035,1.067-3.719,2.484-5.051,4.25c-1.334,1.768-2.316,3.768-2.949,6C1280.443,329.665,1280.127,331.948,1280.127,334.28z"/>
	<path d="M1372.727,352.98c2.266,0,4.201-0.5,5.801-1.5s2.9-2.315,3.9-3.95c1-1.633,1.732-3.516,2.199-5.649
		c0.467-2.133,0.701-4.366,0.701-6.7v-36.5h19.5v36.5c0,4.935-0.635,9.55-1.9,13.85c-1.268,4.301-3.234,8.018-5.9,11.15
		c-2.668,3.135-6.018,5.6-10.051,7.4c-4.033,1.8-8.783,2.699-14.25,2.699c-5.666,0-10.516-0.949-14.549-2.85
		c-4.035-1.9-7.35-4.45-9.951-7.65c-2.6-3.199-4.5-6.915-5.699-11.149c-1.199-4.233-1.801-8.716-1.801-13.45v-36.5h19.5v36.5
		c0,2.334,0.234,4.584,0.701,6.75c0.465,2.167,1.199,4.067,2.199,5.7c1,1.634,2.283,2.935,3.85,3.899
		C1368.543,352.498,1370.461,352.98,1372.727,352.98z"/>
	<path d="M1417.027,369.68v-71h30.6c3.467,0,6.666,0.717,9.6,2.15s5.451,3.3,7.551,5.6s3.75,4.935,4.949,7.9
		c1.201,2.967,1.801,5.949,1.801,8.949c0,3.135-0.566,6.185-1.699,9.15c-1.135,2.967-2.719,5.6-4.75,7.9
		c-2.035,2.3-4.5,4.134-7.4,5.5c-2.9,1.367-6.084,2.05-9.551,2.05h-11.6v21.8H1417.027z M1436.527,330.88h10.301
		c1.199,0,2.314-0.55,3.35-1.65c1.033-1.1,1.549-3.083,1.549-5.95c0-2.933-0.6-4.933-1.799-6c-1.201-1.065-2.4-1.6-3.6-1.6h-9.801
		V330.88z"/>
</g>
</svg>
